<?xml version="1.0" encoding="utf-8"?>
<!-- Generator: Adobe Illustrator 16.0.0, SVG Export Plug-In . SVG Version: 6.00 Build 0)  -->
<!DOCTYPE svg PUBLIC "-//W3C//DTD SVG 1.1//EN" "http://www.w3.org/Graphics/SVG/1.1/DTD/svg11.dtd">
<svg version="1.1" id="Warstwa_1" xmlns="http://www.w3.org/2000/svg" xmlns:xlink="http://www.w3.org/1999/xlink" x="0px" y="0px"
	 width="213.001px" height="48px" viewBox="0 0 213.001 48" enable-background="new 0 0 213.001 48" xml:space="preserve">
<g>
	<g>
		<path fill="#216CB4" d="M87.976,5.806h8.012c1.477,0,2.664,0.339,3.552,1.015c0.893,0.678,1.34,1.701,1.34,3.071
			c0,0.831-0.203,1.542-0.609,2.135c-0.411,0.592-0.989,1.05-1.745,1.374v0.045c1.015,0.216,1.786,0.696,2.309,1.443
			c0.522,0.748,0.786,1.682,0.786,2.805c0,0.646-0.116,1.25-0.345,1.812c-0.233,0.563-0.594,1.048-1.086,1.455
			c-0.492,0.408-1.127,0.732-1.893,0.969c-0.771,0.24-1.685,0.358-2.745,0.358h-7.575V5.806z M90.862,12.708h4.709
			c0.689,0,1.269-0.195,1.73-0.588c0.461-0.394,0.694-0.958,0.694-1.696c0-0.831-0.208-1.417-0.624-1.755
			C96.956,8.33,96.357,8.16,95.571,8.16h-4.709V12.708z M90.862,19.933h5.1c0.878,0,1.558-0.227,2.045-0.681
			c0.487-0.453,0.726-1.096,0.726-1.927c0-0.815-0.238-1.443-0.726-1.881c-0.487-0.439-1.167-0.66-2.045-0.66h-5.1V19.933z"/>
		<path fill="#216CB4" d="M106.287,17.001c0,0.461,0.066,0.908,0.198,1.338c0.127,0.431,0.324,0.808,0.588,1.131
			c0.259,0.323,0.594,0.582,0.99,0.773c0.4,0.192,0.877,0.288,1.431,0.288c0.771,0,1.39-0.165,1.862-0.496
			c0.467-0.331,0.816-0.827,1.05-1.489h2.491c-0.137,0.646-0.375,1.224-0.715,1.731c-0.341,0.508-0.746,0.935-1.224,1.282
			c-0.477,0.344-1.015,0.607-1.603,0.784c-0.594,0.177-1.213,0.265-1.862,0.265c-0.938,0-1.766-0.153-2.491-0.461
			s-1.335-0.74-1.837-1.292c-0.497-0.555-0.878-1.215-1.132-1.985s-0.38-1.616-0.38-2.54c0-0.846,0.137-1.65,0.405-2.413
			c0.27-0.761,0.654-1.431,1.152-2.008c0.502-0.577,1.105-1.035,1.811-1.374c0.711-0.337,1.513-0.507,2.405-0.507
			c0.938,0,1.781,0.197,2.527,0.588c0.745,0.394,1.364,0.912,1.856,1.559c0.492,0.646,0.853,1.388,1.076,2.226
			c0.223,0.84,0.279,1.705,0.172,2.598H106.287z M112.427,15.27c-0.03-0.416-0.117-0.816-0.264-1.2
			c-0.147-0.384-0.346-0.719-0.599-1.004c-0.254-0.284-0.563-0.515-0.924-0.693c-0.365-0.176-0.767-0.265-1.213-0.265
			c-0.462,0-0.883,0.082-1.258,0.243c-0.376,0.162-0.7,0.384-0.97,0.668c-0.269,0.287-0.486,0.622-0.649,1.004
			c-0.157,0.386-0.248,0.8-0.264,1.247H112.427z"/>
		<path fill="#216CB4" d="M117.028,10.354h9.691V12.2l-6.829,8.009h7.18v2.078h-10.503v-1.846l6.601-8.01h-6.14V10.354z"/>
		<path fill="#216CB4" d="M129.424,10.354h2.497v1.616h0.045c0.371-0.692,0.889-1.188,1.548-1.489c0.659-0.3,1.375-0.45,2.146-0.45
			c0.938,0,1.761,0.166,2.461,0.496c0.7,0.332,1.278,0.785,1.74,1.362s0.807,1.25,1.04,2.02c0.229,0.77,0.345,1.593,0.345,2.471
			c0,0.8-0.102,1.577-0.31,2.332c-0.208,0.753-0.527,1.419-0.948,1.997c-0.422,0.577-0.959,1.038-1.604,1.385
			c-0.645,0.346-1.411,0.519-2.288,0.519c-0.381,0-0.767-0.034-1.152-0.104c-0.386-0.068-0.756-0.181-1.105-0.334
			c-0.355-0.154-0.681-0.35-0.984-0.589c-0.3-0.238-0.549-0.519-0.751-0.842h-0.046v5.957h-2.634V10.354z M138.618,16.332
			c0-0.539-0.071-1.062-0.208-1.569c-0.143-0.509-0.351-0.958-0.624-1.351c-0.279-0.393-0.624-0.707-1.04-0.946
			c-0.416-0.238-0.894-0.358-1.431-0.358c-1.111,0-1.943,0.384-2.507,1.154c-0.563,0.769-0.843,1.792-0.843,3.07
			c0,0.6,0.071,1.158,0.219,1.673c0.146,0.516,0.365,0.959,0.659,1.328c0.295,0.369,0.645,0.662,1.051,0.876
			c0.405,0.217,0.883,0.323,1.421,0.323c0.599,0,1.105-0.123,1.521-0.369s0.756-0.565,1.03-0.958
			c0.269-0.394,0.462-0.838,0.573-1.339C138.558,17.367,138.618,16.855,138.618,16.332z"/>
		<path fill="#216CB4" d="M143.905,5.806h2.633v2.493h-2.633V5.806z M143.905,10.354h2.633v11.934h-2.633V10.354z"/>
		<path fill="#216CB4" d="M151.83,17.001c0,0.461,0.066,0.908,0.198,1.338c0.127,0.431,0.325,0.808,0.589,1.131
			c0.259,0.323,0.594,0.582,0.989,0.773c0.4,0.192,0.878,0.288,1.436,0.288c0.767,0,1.386-0.165,1.857-0.496
			c0.467-0.331,0.816-0.827,1.05-1.489h2.491c-0.137,0.646-0.375,1.224-0.715,1.731c-0.34,0.508-0.746,0.935-1.223,1.282
			c-0.478,0.344-1.015,0.607-1.604,0.784c-0.594,0.177-1.213,0.265-1.857,0.265c-0.938,0-1.771-0.153-2.496-0.461
			s-1.334-0.74-1.837-1.292c-0.497-0.555-0.878-1.215-1.131-1.985c-0.254-0.77-0.381-1.616-0.381-2.54
			c0-0.846,0.137-1.65,0.405-2.413c0.27-0.761,0.655-1.431,1.157-2.008c0.497-0.577,1.102-1.035,1.812-1.374
			c0.705-0.337,1.507-0.507,2.4-0.507c0.938,0,1.78,0.197,2.526,0.588c0.746,0.394,1.365,0.912,1.857,1.559
			c0.492,0.646,0.852,1.388,1.075,2.226c0.224,0.84,0.279,1.705,0.173,2.598H151.83z M157.97,15.27
			c-0.03-0.416-0.116-0.816-0.264-1.2s-0.345-0.719-0.599-1.004c-0.254-0.284-0.563-0.515-0.924-0.693
			c-0.365-0.176-0.766-0.265-1.212-0.265c-0.462,0-0.884,0.082-1.259,0.243c-0.381,0.162-0.7,0.384-0.969,0.668
			c-0.27,0.287-0.487,0.622-0.645,1.004c-0.168,0.386-0.254,0.8-0.27,1.247H157.97z"/>
		<path fill="#216CB4" d="M171.04,14.347c-0.106-0.738-0.4-1.296-0.888-1.673c-0.482-0.377-1.096-0.566-1.837-0.566
			c-0.335,0-0.7,0.057-1.081,0.173c-0.385,0.117-0.74,0.332-1.065,0.647c-0.319,0.315-0.594,0.753-0.807,1.315
			c-0.213,0.562-0.319,1.296-0.319,2.205c0,0.492,0.056,0.985,0.167,1.478c0.117,0.492,0.305,0.931,0.559,1.315
			c0.254,0.386,0.578,0.696,0.979,0.935c0.4,0.24,0.883,0.357,1.456,0.357c0.766,0,1.4-0.237,1.902-0.715
			c0.503-0.477,0.812-1.146,0.934-2.008h2.634c-0.249,1.554-0.838,2.744-1.766,3.565c-0.934,0.823-2.167,1.235-3.704,1.235
			c-0.938,0-1.766-0.157-2.481-0.473c-0.715-0.315-1.319-0.746-1.816-1.292c-0.492-0.546-0.862-1.196-1.116-1.951
			c-0.254-0.753-0.381-1.569-0.381-2.447c0-0.892,0.122-1.732,0.365-2.517c0.249-0.784,0.619-1.465,1.111-2.042
			s1.106-1.03,1.837-1.362c0.73-0.33,1.588-0.496,2.572-0.496c0.69,0,1.35,0.089,1.974,0.265c0.625,0.178,1.178,0.444,1.665,0.796
			c0.481,0.354,0.877,0.801,1.187,1.34c0.305,0.538,0.492,1.177,0.554,1.916H171.04z"/>
		<path fill="#216CB4" d="M175.779,10.354h9.696V12.2l-6.835,8.009h7.18v2.078h-10.503v-1.846l6.602-8.01h-6.14V10.354z"/>
		<path fill="#216CB4" d="M188.108,10.354h2.497v1.754l0.045,0.046c0.401-0.661,0.924-1.181,1.568-1.558
			c0.649-0.377,1.365-0.566,2.146-0.566c1.309,0,2.339,0.339,3.095,1.016s1.132,1.693,1.132,3.047v8.194h-2.634v-7.503
			c-0.03-0.938-0.229-1.619-0.599-2.042c-0.37-0.422-0.943-0.634-1.73-0.634c-0.446,0-0.847,0.082-1.202,0.243
			c-0.355,0.162-0.654,0.384-0.898,0.668c-0.248,0.287-0.441,0.622-0.578,1.004c-0.137,0.386-0.208,0.793-0.208,1.224v7.04h-2.634
			V10.354z"/>
		<path fill="#216CB4" d="M211.728,19.632c0,0.323,0.046,0.556,0.132,0.694c0.081,0.137,0.249,0.207,0.492,0.207
			c0.081,0,0.173,0,0.279,0s0.233-0.015,0.37-0.045v1.824c-0.091,0.031-0.213,0.065-0.36,0.104
			c-0.142,0.038-0.294,0.072-0.446,0.104c-0.157,0.029-0.31,0.053-0.467,0.069c-0.152,0.015-0.279,0.022-0.391,0.022
			c-0.538,0-0.984-0.107-1.34-0.323c-0.35-0.214-0.583-0.592-0.689-1.13c-0.522,0.507-1.167,0.876-1.928,1.107
			c-0.762,0.231-1.497,0.346-2.202,0.346c-0.543,0-1.056-0.073-1.548-0.219s-0.929-0.36-1.304-0.647
			c-0.381-0.284-0.681-0.646-0.903-1.084c-0.224-0.439-0.335-0.95-0.335-1.535c0-0.738,0.137-1.34,0.406-1.8
			c0.269-0.461,0.624-0.823,1.06-1.086c0.441-0.261,0.934-0.449,1.477-0.565c0.549-0.114,1.102-0.203,1.654-0.265
			c0.478-0.093,0.929-0.157,1.36-0.197c0.431-0.038,0.812-0.103,1.142-0.195c0.335-0.092,0.594-0.234,0.786-0.427
			s0.289-0.481,0.289-0.865c0-0.339-0.081-0.615-0.243-0.831c-0.163-0.215-0.36-0.38-0.599-0.496
			c-0.239-0.117-0.508-0.193-0.797-0.232c-0.294-0.037-0.568-0.057-0.832-0.057c-0.741,0-1.345,0.154-1.821,0.462
			c-0.478,0.308-0.746,0.784-0.808,1.431h-2.633c0.046-0.77,0.229-1.408,0.553-1.915c0.325-0.509,0.736-0.916,1.233-1.223
			c0.502-0.308,1.065-0.524,1.699-0.647c0.63-0.123,1.273-0.185,1.938-0.185c0.584,0,1.162,0.062,1.73,0.185
			c0.573,0.123,1.08,0.322,1.537,0.599c0.452,0.277,0.817,0.635,1.096,1.074c0.274,0.439,0.411,0.974,0.411,1.604V19.632z
			 M209.1,16.309c-0.401,0.263-0.894,0.42-1.477,0.472c-0.584,0.056-1.172,0.136-1.756,0.244c-0.273,0.045-0.548,0.111-0.807,0.196
			c-0.264,0.085-0.492,0.199-0.695,0.346c-0.197,0.146-0.354,0.339-0.472,0.577c-0.116,0.239-0.173,0.527-0.173,0.865
			c0,0.293,0.087,0.539,0.254,0.74c0.168,0.199,0.371,0.357,0.614,0.472c0.238,0.117,0.497,0.197,0.781,0.242
			c0.284,0.047,0.543,0.07,0.776,0.07c0.289,0,0.604-0.038,0.943-0.115c0.34-0.076,0.66-0.208,0.959-0.392
			c0.3-0.185,0.554-0.418,0.751-0.704c0.198-0.285,0.3-0.634,0.3-1.05V16.309z"/>
	</g>
	<g>
		<path fill="#216CB4" d="M88.001,26.786h2.882v16.483h-2.882V26.786z"/>
		<path fill="#216CB4" d="M94.085,31.334h2.496v1.754l0.046,0.046c0.396-0.661,0.923-1.18,1.567-1.558
			c0.645-0.377,1.365-0.566,2.146-0.566c1.309,0,2.339,0.339,3.095,1.016s1.132,1.693,1.132,3.047v8.196h-2.634v-7.504
			c-0.03-0.938-0.229-1.619-0.599-2.042c-0.37-0.422-0.948-0.634-1.73-0.634c-0.446,0-0.847,0.082-1.202,0.243
			S97.748,33.715,97.504,34c-0.248,0.284-0.441,0.619-0.578,1.003c-0.137,0.386-0.208,0.793-0.208,1.224v7.042h-2.633V31.334z"/>
		<path fill="#216CB4" d="M106.201,31.334h1.958v-0.993c0-0.754,0.097-1.365,0.279-1.835c0.183-0.47,0.432-0.831,0.735-1.083
			c0.31-0.255,0.66-0.424,1.051-0.51c0.396-0.084,0.807-0.126,1.238-0.126c0.847,0,1.461,0.054,1.847,0.161v2.055
			c-0.173-0.047-0.351-0.081-0.543-0.105c-0.192-0.021-0.421-0.034-0.68-0.034c-0.355,0-0.66,0.085-0.913,0.255
			c-0.254,0.17-0.381,0.5-0.381,0.992v1.224h2.237v1.962h-2.237v9.973h-2.634v-9.973h-1.958V31.334z"/>
		<path fill="#216CB4" d="M120.159,43.591c-0.954,0-1.807-0.158-2.552-0.473c-0.746-0.315-1.381-0.751-1.893-1.304
			c-0.518-0.554-0.908-1.215-1.178-1.985c-0.269-0.77-0.405-1.616-0.405-2.539c0-0.909,0.137-1.747,0.405-2.517
			c0.27-0.769,0.66-1.431,1.178-1.985c0.512-0.553,1.146-0.988,1.893-1.304c0.745-0.316,1.598-0.473,2.552-0.473
			s1.802,0.157,2.547,0.473c0.751,0.316,1.381,0.751,1.897,1.304c0.513,0.554,0.908,1.216,1.178,1.985
			c0.269,0.77,0.4,1.608,0.4,2.517c0,0.923-0.132,1.769-0.4,2.539c-0.27,0.77-0.665,1.431-1.178,1.985
			c-0.517,0.553-1.146,0.989-1.897,1.304C121.961,43.434,121.113,43.591,120.159,43.591z M120.159,41.513
			c0.584,0,1.091-0.123,1.522-0.368c0.431-0.248,0.786-0.569,1.061-0.97c0.278-0.401,0.481-0.852,0.613-1.351
			c0.132-0.5,0.198-1.011,0.198-1.535c0-0.508-0.066-1.016-0.198-1.525c-0.132-0.507-0.335-0.958-0.613-1.35
			c-0.274-0.392-0.63-0.712-1.061-0.958c-0.432-0.246-0.938-0.369-1.522-0.369c-0.583,0-1.096,0.123-1.522,0.369
			c-0.431,0.246-0.786,0.566-1.065,0.958c-0.273,0.392-0.481,0.842-0.608,1.35c-0.132,0.509-0.198,1.017-0.198,1.525
			c0,0.523,0.066,1.035,0.198,1.535c0.127,0.5,0.335,0.95,0.608,1.351c0.279,0.401,0.635,0.723,1.065,0.97
			C119.063,41.39,119.576,41.513,120.159,41.513z"/>
		<path fill="#216CB4" d="M128.414,31.334h2.472v2.307h0.045c0.076-0.322,0.229-0.638,0.452-0.945
			c0.223-0.309,0.492-0.589,0.807-0.842c0.314-0.255,0.665-0.459,1.05-0.613c0.386-0.153,0.776-0.231,1.178-0.231
			c0.31,0,0.518,0.008,0.634,0.023c0.117,0.017,0.233,0.032,0.36,0.046v2.541c-0.188-0.032-0.375-0.059-0.568-0.081
			c-0.192-0.024-0.38-0.034-0.563-0.034c-0.447,0-0.868,0.087-1.259,0.265c-0.396,0.177-0.735,0.438-1.03,0.784
			c-0.289,0.348-0.522,0.774-0.689,1.281c-0.173,0.509-0.254,1.093-0.254,1.754v5.68h-2.634V31.334z"/>
		<path fill="#216CB4" d="M136.578,31.334h2.496v1.662h0.066c0.203-0.292,0.416-0.561,0.649-0.808
			c0.229-0.246,0.487-0.454,0.771-0.623c0.284-0.17,0.613-0.304,0.984-0.404c0.365-0.099,0.791-0.15,1.269-0.15
			c0.72,0,1.396,0.163,2.02,0.485c0.624,0.323,1.065,0.824,1.329,1.5c0.446-0.615,0.959-1.1,1.542-1.455
			c0.589-0.354,1.319-0.53,2.192-0.53c1.264,0,2.242,0.307,2.948,0.923c0.7,0.617,1.05,1.646,1.05,3.093v8.243h-2.634v-6.973
			c0-0.476-0.015-0.912-0.045-1.303c-0.03-0.394-0.122-0.732-0.264-1.017c-0.147-0.283-0.366-0.502-0.66-0.657
			c-0.294-0.153-0.695-0.231-1.202-0.231c-0.894,0-1.538,0.277-1.938,0.831s-0.599,1.338-0.599,2.354v6.996h-2.634v-7.666
			c0-0.831-0.146-1.458-0.451-1.881c-0.3-0.422-0.848-0.634-1.649-0.634c-0.34,0-0.664,0.069-0.979,0.208
			c-0.315,0.138-0.594,0.338-0.833,0.6c-0.238,0.261-0.431,0.585-0.578,0.969c-0.146,0.384-0.218,0.825-0.218,1.317v7.087h-2.634
			V31.334z"/>
		<path fill="#216CB4" d="M166.702,40.613c0,0.323,0.04,0.554,0.127,0.694c0.081,0.137,0.248,0.207,0.492,0.207
			c0.081,0,0.172,0,0.279,0c0.106,0,0.228-0.015,0.365-0.045v1.824c-0.092,0.031-0.208,0.065-0.355,0.103
			c-0.147,0.039-0.294,0.074-0.452,0.104c-0.151,0.032-0.304,0.055-0.456,0.07c-0.157,0.015-0.289,0.023-0.396,0.023
			c-0.538,0-0.984-0.108-1.34-0.322c-0.355-0.216-0.584-0.594-0.69-1.132c-0.527,0.508-1.167,0.877-1.928,1.107
			c-0.761,0.232-1.497,0.347-2.207,0.347c-0.538,0-1.051-0.073-1.548-0.22c-0.487-0.146-0.923-0.36-1.304-0.647
			c-0.376-0.283-0.675-0.646-0.898-1.083c-0.223-0.44-0.335-0.952-0.335-1.536c0-0.738,0.138-1.34,0.406-1.8
			c0.269-0.463,0.619-0.823,1.061-1.085c0.437-0.262,0.934-0.449,1.477-0.566c0.548-0.115,1.096-0.203,1.648-0.265
			c0.478-0.093,0.934-0.157,1.365-0.197c0.432-0.038,0.812-0.103,1.142-0.195c0.33-0.092,0.594-0.234,0.786-0.427
			c0.193-0.191,0.29-0.481,0.29-0.866c0-0.337-0.087-0.614-0.244-0.83c-0.162-0.216-0.365-0.382-0.599-0.496
			c-0.243-0.117-0.507-0.193-0.797-0.232c-0.294-0.038-0.573-0.057-0.832-0.057c-0.74,0-1.35,0.155-1.821,0.462
			c-0.482,0.308-0.751,0.784-0.812,1.431h-2.634c0.051-0.77,0.233-1.408,0.559-1.917c0.319-0.507,0.73-0.915,1.232-1.223
			c0.503-0.307,1.065-0.524,1.7-0.646c0.629-0.123,1.273-0.186,1.938-0.186c0.583,0,1.156,0.063,1.729,0.186
			c0.568,0.122,1.081,0.323,1.532,0.599c0.457,0.278,0.822,0.637,1.102,1.074c0.273,0.439,0.416,0.974,0.416,1.604V40.613z
			 M164.068,37.29c-0.4,0.261-0.893,0.419-1.477,0.473c-0.588,0.054-1.172,0.134-1.755,0.242c-0.279,0.045-0.548,0.111-0.807,0.196
			c-0.265,0.085-0.498,0.199-0.695,0.347c-0.198,0.146-0.355,0.338-0.472,0.577c-0.117,0.238-0.173,0.527-0.173,0.865
			c0,0.293,0.081,0.539,0.254,0.74c0.167,0.199,0.37,0.357,0.608,0.472c0.238,0.117,0.503,0.197,0.787,0.242
			c0.283,0.047,0.542,0.07,0.771,0.07c0.295,0,0.609-0.038,0.949-0.115c0.34-0.076,0.659-0.207,0.959-0.392
			c0.299-0.185,0.548-0.418,0.751-0.704c0.197-0.285,0.299-0.634,0.299-1.05V37.29z"/>
		<path fill="#216CB4" d="M168.376,31.334h1.984v-3.579h2.634v3.579h2.379v1.962h-2.379v6.371c0,0.277,0.01,0.515,0.035,0.716
			c0.021,0.199,0.076,0.369,0.162,0.507c0.081,0.138,0.208,0.242,0.381,0.311c0.167,0.07,0.396,0.105,0.689,0.105
			c0.188,0,0.371-0.004,0.559-0.013c0.183-0.006,0.365-0.034,0.553-0.08v2.031c-0.294,0.031-0.578,0.061-0.857,0.093
			c-0.273,0.03-0.563,0.045-0.853,0.045c-0.694,0-1.253-0.064-1.674-0.195c-0.421-0.13-0.751-0.323-0.995-0.577
			c-0.233-0.253-0.396-0.573-0.481-0.959c-0.086-0.384-0.137-0.823-0.152-1.315v-7.04h-1.984V31.334z"/>
		<path fill="#216CB4" d="M175.967,31.334h2.882l3.131,8.91h0.051l3.009-8.91h2.745l-4.643,12.581
			c-0.213,0.539-0.427,1.054-0.629,1.546c-0.208,0.493-0.462,0.927-0.762,1.305c-0.299,0.376-0.67,0.677-1.111,0.899
			c-0.446,0.223-1.015,0.335-1.704,0.335c-0.614,0-1.218-0.046-1.816-0.139v-2.216c0.213,0.03,0.426,0.065,0.624,0.104
			c0.197,0.037,0.405,0.057,0.624,0.057c0.304,0,0.558-0.038,0.761-0.115c0.198-0.076,0.365-0.188,0.497-0.335
			c0.127-0.146,0.238-0.318,0.33-0.519c0.097-0.2,0.178-0.431,0.259-0.692l0.299-0.923L175.967,31.334z"/>
		<path fill="#216CB4" d="M189.393,26.786h2.633v9.373l4.755-4.825h3.231l-4.571,4.385l5.008,7.55h-3.206l-3.648-5.794l-1.568,1.522
			v4.272h-2.633V26.786z"/>
		<path fill="#216CB4" d="M211.753,40.613c0,0.323,0.041,0.554,0.127,0.694c0.086,0.137,0.249,0.207,0.497,0.207
			c0.076,0,0.168,0,0.279,0c0.106,0,0.229-0.015,0.365-0.045v1.824c-0.091,0.031-0.208,0.065-0.355,0.103
			c-0.146,0.039-0.299,0.074-0.451,0.104c-0.157,0.032-0.31,0.055-0.462,0.07s-0.284,0.023-0.391,0.023
			c-0.543,0-0.989-0.108-1.34-0.322c-0.354-0.216-0.583-0.594-0.694-1.132c-0.522,0.508-1.162,0.877-1.929,1.107
			c-0.761,0.232-1.491,0.347-2.202,0.347c-0.537,0-1.055-0.073-1.547-0.22c-0.492-0.146-0.929-0.36-1.305-0.647
			c-0.375-0.283-0.675-0.646-0.897-1.083c-0.224-0.44-0.335-0.952-0.335-1.536c0-0.738,0.132-1.34,0.4-1.8
			c0.27-0.463,0.624-0.823,1.065-1.085c0.437-0.262,0.929-0.449,1.477-0.566c0.548-0.115,1.097-0.203,1.649-0.265
			c0.477-0.093,0.934-0.157,1.365-0.197c0.426-0.038,0.812-0.103,1.142-0.195c0.329-0.092,0.588-0.234,0.781-0.427
			c0.192-0.191,0.289-0.481,0.289-0.866c0-0.337-0.081-0.614-0.238-0.83c-0.163-0.216-0.365-0.382-0.604-0.496
			c-0.238-0.117-0.502-0.193-0.796-0.232c-0.289-0.038-0.568-0.057-0.832-0.057c-0.736,0-1.345,0.155-1.822,0.462
			c-0.477,0.308-0.745,0.784-0.807,1.431h-2.633c0.045-0.77,0.233-1.408,0.553-1.917c0.325-0.507,0.735-0.915,1.238-1.223
			c0.497-0.307,1.065-0.524,1.694-0.646c0.629-0.123,1.278-0.186,1.938-0.186c0.589,0,1.162,0.063,1.735,0.186
			c0.568,0.122,1.08,0.323,1.532,0.599c0.456,0.278,0.822,0.637,1.096,1.074c0.279,0.439,0.416,0.974,0.416,1.604V40.613z
			 M209.12,37.29c-0.396,0.261-0.894,0.419-1.477,0.473c-0.584,0.054-1.167,0.134-1.751,0.242c-0.279,0.045-0.548,0.111-0.812,0.196
			c-0.259,0.085-0.492,0.199-0.69,0.347c-0.197,0.146-0.36,0.338-0.472,0.577c-0.116,0.238-0.178,0.527-0.178,0.865
			c0,0.293,0.087,0.539,0.254,0.74c0.173,0.199,0.375,0.357,0.614,0.472c0.238,0.117,0.497,0.197,0.786,0.242
			c0.284,0.047,0.538,0.07,0.771,0.07c0.289,0,0.608-0.038,0.948-0.115c0.335-0.076,0.655-0.207,0.954-0.392
			c0.305-0.185,0.553-0.418,0.751-0.704c0.203-0.285,0.3-0.634,0.3-1.05V37.29z"/>
	</g>
	<g>
		<path fill-rule="evenodd" clip-rule="evenodd" fill="#226CB4" d="M73.003,31.066c-0.873-6.568-4.77-10.928-10.818-13.422
			c-0.634-0.263-0.964-0.615-1.197-1.258c-1.269-3.539-3.263-6.635-6.032-9.175c-6.708-6.146-14.664-8.345-23.508-6.667
			C22.132,2.31,15.5,7.612,12.024,16.603c-0.157,0.402-0.624,0.803-1.04,0.972c-3.638,1.475-6.606,3.789-8.596,7.174
			c-2.43,4.137-3.146,8.958-1.496,13.496c0.477,1.31,1.105,2.546,1.694,3.809c0.31,0.668,0.726,1.282,1.183,1.859
			c0.386,0.477,0.72,0.925,1.192,1.449c0.278,0.31,0.518,0.633,1.015,1.29l0.416,0.384c0.451,0,4.241,0,4.698,0
			c1.081,0,2.167,0,3.247,0c1.04,0,2.081,0,3.121,0c0.365,0,0.726,0,1.085,0c0.422,0,0.843,0,1.259,0c0.34,0,0.675,0,1.01,0
			c0.016,0,0.025,0,0.041,0h3.8c-0.898-1.798-1.796-3.595-2.694-5.395c-1.131-2.277-0.583-3.883,1.7-5.024
			c0.167-0.084,0.335-0.167,0.497-0.249c-0.654-1.286-1.289-2.543-1.878-3.823c-2.643-5.76-0.132-13.388,5.262-16.732
			c6.313-3.916,13.883-2.169,17.876,2.564c0.705,0.839,1.364,1.75,1.872,2.72c0.522,0.993,1.035,1.993,1.542,2.996
			c2.091-0.822,3.425-0.207,4.547,2.042c3.476,6.966,6.956,13.933,10.432,20.9h0.548c0.822-0.14,1.583-0.526,2.405-1.2
			C71.42,42.007,73.804,37.109,73.003,31.066z"/>
		<path fill-rule="evenodd" clip-rule="evenodd" fill="#226CB4" d="M38.521,29.2c0.34-0.17,0.675-0.337,1.197-0.599l3.485-1.739
			c-0.604-1.214-1.223-2.421-1.893-3.597c-1.938-3.39-6.307-4.479-9.884-2.646c-3.501,1.795-5.119,6.094-3.541,9.643
			c0.507,1.145,1.07,2.264,1.664,3.417C32.538,32.186,35.526,30.693,38.521,29.2z"/>
	</g>
</g>
</svg>
